<?xml version="1.0" encoding="UTF-8" standalone="no" ?>
<!DOCTYPE svg PUBLIC "-//W3C//DTD SVG 1.1//EN" "http://www.w3.org/Graphics/SVG/1.1/DTD/svg11.dtd">
<svg xmlns="http://www.w3.org/2000/svg" xmlns:xlink="http://www.w3.org/1999/xlink" version="1.1" width="1200" height="350" viewBox="0 0 1200 350" xml:space="preserve">
<desc>Created with Fabric.js 4.6.0</desc>
<defs>
</defs>
<g transform="matrix(0.99 0 0 0.94 600 175)" id="DA69sC3p3BJu9CZWwQwpO"  >
<linearGradient id="SVGID_342" gradientUnits="userSpaceOnUse" gradientTransform="matrix(1 0 0 1 -606 -185)"  x1="7.222884386173973" y1="376.065573770492" x2="1212.0000000000005" y2="185.0000000000001">
<stop offset="0%" style="stop-color:#3A6173;stop-opacity: 1"/>
<stop offset="100%" style="stop-color:#7094A1;stop-opacity: 1"/>
</linearGradient>
<path style="stroke: rgb(231,6,139); stroke-width: 0; stroke-dasharray: none; stroke-linecap: butt; stroke-dashoffset: 0; stroke-linejoin: miter; stroke-miterlimit: 4; fill: url(#SVGID_342); fill-rule: nonzero; opacity: 1;" vector-effect="non-scaling-stroke"  transform=" translate(0, 0)" d="M -606 -185 L 606 -185 L 606 185 L -606 185 z" stroke-linecap="round" />
</g>
<g transform="matrix(0.42 0.42 -0.42 0.42 132.02 75.72)" id="j4pfRjp-ZD6pKjlaS0r_c"  >
<path style="stroke: rgb(225,241,91); stroke-width: 0; stroke-dasharray: none; stroke-linecap: butt; stroke-dashoffset: 0; stroke-linejoin: miter; stroke-miterlimit: 4; fill: rgb(108,145,158); fill-rule: nonzero; opacity: 1;" vector-effect="non-scaling-stroke"  transform=" translate(0, 0)" d="M -39 -39 L 39 -39 L 39 39 L -39 39 z" stroke-linecap="round" />
</g>
<g transform="matrix(0.42 0.42 -0.42 0.42 198.22 141.92)" id="33AaM4AcQY5mWfhsJANl9"  >
<path style="stroke: rgb(225,241,91); stroke-width: 0; stroke-dasharray: none; stroke-linecap: butt; stroke-dashoffset: 0; stroke-linejoin: miter; stroke-miterlimit: 4; fill: rgb(108,145,158); fill-rule: nonzero; opacity: 1;" vector-effect="non-scaling-stroke"  transform=" translate(0, 0)" d="M -39 -39 L 39 -39 L 39 39 L -39 39 z" stroke-linecap="round" />
</g>
<g transform="matrix(0.42 0.42 -0.42 0.42 264.4 208.1)" id="o3MOqAMRTAfked0Tyd9xT"  >
<path style="stroke: rgb(225,241,91); stroke-width: 0; stroke-dasharray: none; stroke-linecap: butt; stroke-dashoffset: 0; stroke-linejoin: miter; stroke-miterlimit: 4; fill: rgb(108,145,158); fill-rule: nonzero; opacity: 1;" vector-effect="non-scaling-stroke"  transform=" translate(0, 0)" d="M -39 -39 L 39 -39 L 39 39 L -39 39 z" stroke-linecap="round" />
</g>
<g transform="matrix(0.42 0.42 -0.42 0.42 330.59 274.29)" id="19T77Ct3BYyOKVhkZ3q1u"  >
<path style="stroke: rgb(225,241,91); stroke-width: 0; stroke-dasharray: none; stroke-linecap: butt; stroke-dashoffset: 0; stroke-linejoin: miter; stroke-miterlimit: 4; fill: rgb(108,145,158); fill-rule: nonzero; opacity: 1;" vector-effect="non-scaling-stroke"  transform=" translate(0, 0)" d="M -39 -39 L 39 -39 L 39 39 L -39 39 z" stroke-linecap="round" />
</g>
<g transform="matrix(0.42 0.42 -0.42 0.42 65.83 9.53)" id="6DVbqgKtVAs5lBO3Qj4G8"  >
<path style="stroke: rgb(225,241,91); stroke-width: 0; stroke-dasharray: none; stroke-linecap: butt; stroke-dashoffset: 0; stroke-linejoin: miter; stroke-miterlimit: 4; fill: rgb(108,145,158); fill-rule: nonzero; opacity: 1;" vector-effect="non-scaling-stroke"  transform=" translate(0, 0)" d="M -39 -39 L 39 -39 L 39 39 L -39 39 z" stroke-linecap="round" />
</g>
<g transform="matrix(0.42 0.42 -0.42 0.42 396.77 340.47)" id="o7VhLVxfPbQls4UqIzb1R"  >
<path style="stroke: rgb(225,241,91); stroke-width: 0; stroke-dasharray: none; stroke-linecap: butt; stroke-dashoffset: 0; stroke-linejoin: miter; stroke-miterlimit: 4; fill: rgb(108,145,158); fill-rule: nonzero; opacity: 1;" vector-effect="non-scaling-stroke"  transform=" translate(0, 0)" d="M -39 -39 L 39 -39 L 39 39 L -39 39 z" stroke-linecap="round" />
</g>
<g transform="matrix(-0.42 0.42 -0.42 -0.42 758 -10.91)" id="AsNQUj-vM5tJZyCKhriSy"  >
<path style="stroke: rgb(225,241,91); stroke-width: 0; stroke-dasharray: none; stroke-linecap: butt; stroke-dashoffset: 0; stroke-linejoin: miter; stroke-miterlimit: 4; fill: rgb(255,255,255); fill-opacity: 0.37; fill-rule: nonzero; opacity: 1;" vector-effect="non-scaling-stroke"  transform=" translate(0, 0)" d="M -39 -39 L 39 -39 L 39 39 L -39 39 z" stroke-linecap="round" />
</g>
<g transform="matrix(-0.42 0.42 -0.42 -0.42 691.8 55.29)" id="r1U9Wph_2TKcILjuPIOXk"  >
<path style="stroke: rgb(225,241,91); stroke-width: 0; stroke-dasharray: none; stroke-linecap: butt; stroke-dashoffset: 0; stroke-linejoin: miter; stroke-miterlimit: 4; fill: rgb(255,255,255); fill-opacity: 0.37; fill-rule: nonzero; opacity: 1;" vector-effect="non-scaling-stroke"  transform=" translate(0, 0)" d="M -39 -39 L 39 -39 L 39 39 L -39 39 z" stroke-linecap="round" />
</g>
<g transform="matrix(-0.42 0.42 -0.42 -0.42 625.62 121.47)" id="QoF7iQr3LzSjA7EWJaUxz"  >
<path style="stroke: rgb(225,241,91); stroke-width: 0; stroke-dasharray: none; stroke-linecap: butt; stroke-dashoffset: 0; stroke-linejoin: miter; stroke-miterlimit: 4; fill: rgb(255,255,255); fill-opacity: 0.37; fill-rule: nonzero; opacity: 1;" vector-effect="non-scaling-stroke"  transform=" translate(0, 0)" d="M -39 -39 L 39 -39 L 39 39 L -39 39 z" stroke-linecap="round" />
</g>
<g transform="matrix(-0.42 0.42 -0.42 -0.42 559.43 187.66)" id="oaYeuXH9wrOArmo88FMmk"  >
<path style="stroke: rgb(225,241,91); stroke-width: 0; stroke-dasharray: none; stroke-linecap: butt; stroke-dashoffset: 0; stroke-linejoin: miter; stroke-miterlimit: 4; fill: rgb(255,255,255); fill-opacity: 0.37; fill-rule: nonzero; opacity: 1;" vector-effect="non-scaling-stroke"  transform=" translate(0, 0)" d="M -39 -39 L 39 -39 L 39 39 L -39 39 z" stroke-linecap="round" />
</g>
<g transform="matrix(-0.42 0.42 -0.42 -0.42 824.19 -77.1)" id="2SkGYRbtTbz_1Rs45aBXD"  >
<path style="stroke: rgb(225,241,91); stroke-width: 0; stroke-dasharray: none; stroke-linecap: butt; stroke-dashoffset: 0; stroke-linejoin: miter; stroke-miterlimit: 4; fill: rgb(255,255,255); fill-opacity: 0.37; fill-rule: nonzero; opacity: 1;" vector-effect="non-scaling-stroke"  transform=" translate(0, 0)" d="M -39 -39 L 39 -39 L 39 39 L -39 39 z" stroke-linecap="round" />
</g>
<g transform="matrix(-0.42 0.42 -0.42 -0.42 493.25 253.84)" id="be7XC0G8g4wxTK1uAPkGx"  >
<path style="stroke: rgb(225,241,91); stroke-width: 0; stroke-dasharray: none; stroke-linecap: butt; stroke-dashoffset: 0; stroke-linejoin: miter; stroke-miterlimit: 4; fill: rgb(255,255,255); fill-opacity: 0.37; fill-rule: nonzero; opacity: 1;" vector-effect="non-scaling-stroke"  transform=" translate(0, 0)" d="M -39 -39 L 39 -39 L 39 39 L -39 39 z" stroke-linecap="round" />
</g>
<g transform="matrix(1 0 0 1 435.4 167)" id="jISNayZdjbgI2XbmoD5oK"  >
<path style="stroke: rgb(255,191,93); stroke-opacity: 0.38; stroke-width: 4; stroke-dasharray: none; stroke-linecap: butt; stroke-dashoffset: 0; stroke-linejoin: miter; stroke-miterlimit: 4; fill: none; fill-rule: nonzero; opacity: 1;" vector-effect="non-scaling-stroke"  transform=" translate(-63.5, -54.99)" d="M 95.25 0 L 127 54.99261 L 95.25 109.98522 L 31.75 109.98522 L 0 54.99261 L 31.75 0 z" stroke-linecap="round" />
</g>
<g transform="matrix(1 0 0 1 534.5 110.01)" id="PQIV5eBPWjNEQjOj8tGRu"  >
<path style="stroke: rgb(255,191,93); stroke-opacity: 0.38; stroke-width: 4; stroke-dasharray: none; stroke-linecap: butt; stroke-dashoffset: 0; stroke-linejoin: miter; stroke-miterlimit: 4; fill: none; fill-rule: nonzero; opacity: 1;" vector-effect="non-scaling-stroke"  transform=" translate(-63.5, -54.99)" d="M 95.25 0 L 127 54.99261 L 95.25 109.98522 L 31.75 109.98522 L 0 54.99261 L 31.75 0 z" stroke-linecap="round" />
</g>
<g transform="matrix(1 0 0 1 534.5 223.99)" id="rWto24iACSRDQyPJ4pkpY"  >
<path style="stroke: rgb(255,191,93); stroke-opacity: 0.38; stroke-width: 4; stroke-dasharray: none; stroke-linecap: butt; stroke-dashoffset: 0; stroke-linejoin: miter; stroke-miterlimit: 4; fill: none; fill-rule: nonzero; opacity: 1;" vector-effect="non-scaling-stroke"  transform=" translate(-63.5, -54.99)" d="M 95.25 0 L 127 54.99261 L 95.25 109.98522 L 31.75 109.98522 L 0 54.99261 L 31.75 0 z" stroke-linecap="round" />
</g>
<g transform="matrix(1 0 0 1 338.5 129.5)" id="kXVgZcOPzP9qBfEhFexny"  >
<filter id="SVGID_341" y="-23%" height="146%" x="-23%" width="146%" >
	<feGaussianBlur in="SourceAlpha" stdDeviation="0"></feGaussianBlur>
	<feOffset dx="4" dy="4" result="oBlur" ></feOffset>
	<feFlood flood-color="rgb(255,255,255)" flood-opacity="1"/>
	<feComposite in2="oBlur" operator="in" />
	<feMerge>
		<feMergeNode></feMergeNode>
		<feMergeNode in="SourceGraphic"></feMergeNode>
	</feMerge>
</filter>
<path style="stroke: rgb(155,98,140); stroke-width: 0; stroke-dasharray: none; stroke-linecap: butt; stroke-dashoffset: 0; stroke-linejoin: miter; stroke-miterlimit: 4; fill: rgb(249,154,45); fill-rule: nonzero; opacity: 1;filter: url(#SVGID_341);" vector-effect="non-scaling-stroke"  transform=" translate(-79.5, -79.5)" d="M 0 0 L 159 0 L 159 159 L 0 159 z" stroke-linecap="round" />
</g>
<g transform="matrix(1 0 0 0.89 241.93 228.14)" id="cys09YP26MWHUiODJmD8D"  >
<filter id="SVGID_329" y="-21%" height="142%" x="-21%" width="142%" >
	<feGaussianBlur in="SourceAlpha" stdDeviation="0"></feGaussianBlur>
	<feOffset dx="4" dy="4" result="oBlur" ></feOffset>
	<feFlood flood-color="rgb(0,0,0)" flood-opacity="1"/>
	<feComposite in2="oBlur" operator="in" />
	<feMerge>
		<feMergeNode></feMergeNode>
		<feMergeNode in="SourceGraphic"></feMergeNode>
	</feMerge>
</filter>
<path style="stroke: rgb(41,121,139); stroke-width: 0; stroke-dasharray: none; stroke-linecap: butt; stroke-dashoffset: 0; stroke-linejoin: miter; stroke-miterlimit: 4; fill: rgb(221,51,51); fill-rule: nonzero; opacity: 1;filter: url(#SVGID_329);" vector-effect="non-scaling-stroke"  transform=" translate(0, 0)" d="M -136.5 -136.5 L 136.5 -136.5 L 136.5 136.5 L -136.5 136.5 z" stroke-linecap="round" />
</g>
<g transform="matrix(0.42 0.42 -0.42 0.42 956.57 55.26)" id="AbGODRQLSr2ok0qIDciMs"  >
<path style="stroke: rgb(225,241,91); stroke-width: 0; stroke-dasharray: none; stroke-linecap: butt; stroke-dashoffset: 0; stroke-linejoin: miter; stroke-miterlimit: 4; fill: rgb(80,118,134); fill-rule: nonzero; opacity: 1;" vector-effect="non-scaling-stroke"  transform=" translate(0, 0)" d="M -39 -39 L 39 -39 L 39 39 L -39 39 z" stroke-linecap="round" />
</g>
<g transform="matrix(0.42 0.42 -0.42 0.42 1022.77 121.46)" id="drXY-loMGO-9YiTsHziN8"  >
<path style="stroke: rgb(225,241,91); stroke-width: 0; stroke-dasharray: none; stroke-linecap: butt; stroke-dashoffset: 0; stroke-linejoin: miter; stroke-miterlimit: 4; fill: rgb(80,118,134); fill-rule: nonzero; opacity: 1;" vector-effect="non-scaling-stroke"  transform=" translate(0, 0)" d="M -39 -39 L 39 -39 L 39 39 L -39 39 z" stroke-linecap="round" />
</g>
<g transform="matrix(0.42 0.42 -0.42 0.42 1088.95 187.64)" id="kfP-6wNcoghCzYS7NHk3g"  >
<path style="stroke: rgb(225,241,91); stroke-width: 0; stroke-dasharray: none; stroke-linecap: butt; stroke-dashoffset: 0; stroke-linejoin: miter; stroke-miterlimit: 4; fill: rgb(80,118,134); fill-rule: nonzero; opacity: 1;" vector-effect="non-scaling-stroke"  transform=" translate(0, 0)" d="M -39 -39 L 39 -39 L 39 39 L -39 39 z" stroke-linecap="round" />
</g>
<g transform="matrix(0.42 0.42 -0.42 0.42 1155.14 253.83)" id="cA90M2h2ShVLliNK4-aoA"  >
<path style="stroke: rgb(225,241,91); stroke-width: 0; stroke-dasharray: none; stroke-linecap: butt; stroke-dashoffset: 0; stroke-linejoin: miter; stroke-miterlimit: 4; fill: rgb(80,118,134); fill-rule: nonzero; opacity: 1;" vector-effect="non-scaling-stroke"  transform=" translate(0, 0)" d="M -39 -39 L 39 -39 L 39 39 L -39 39 z" stroke-linecap="round" />
</g>
<g transform="matrix(0.42 0.42 -0.42 0.42 890.38 -10.93)" id="ZUY-Wv0mJQ-1I95zXckrf"  >
<path style="stroke: rgb(225,241,91); stroke-width: 0; stroke-dasharray: none; stroke-linecap: butt; stroke-dashoffset: 0; stroke-linejoin: miter; stroke-miterlimit: 4; fill: rgb(80,118,134); fill-rule: nonzero; opacity: 1;" vector-effect="non-scaling-stroke"  transform=" translate(0, 0)" d="M -39 -39 L 39 -39 L 39 39 L -39 39 z" stroke-linecap="round" />
</g>
<g transform="matrix(0.42 0.42 -0.42 0.42 1221.32 320.01)" id="oVQRV-vEP1_XOSAUuGlDw"  >
<path style="stroke: rgb(225,241,91); stroke-width: 0; stroke-dasharray: none; stroke-linecap: butt; stroke-dashoffset: 0; stroke-linejoin: miter; stroke-miterlimit: 4; fill: rgb(80,118,134); fill-rule: nonzero; opacity: 1;" vector-effect="non-scaling-stroke"  transform=" translate(0, 0)" d="M -39 -39 L 39 -39 L 39 39 L -39 39 z" stroke-linecap="round" />
</g>
<g transform="matrix(1 0 0 1 757.5 223.99)" id="6o2QoFyewQoWdP_QFINrH"  >
<path style="stroke: rgb(93,227,255); stroke-opacity: 0.38; stroke-width: 4; stroke-dasharray: none; stroke-linecap: butt; stroke-dashoffset: 0; stroke-linejoin: miter; stroke-miterlimit: 4; fill: none; fill-rule: nonzero; opacity: 1;" vector-effect="non-scaling-stroke"  transform=" translate(-63.5, -54.99)" d="M 95.25 0 L 127 54.99261 L 95.25 109.98522 L 31.75 109.98522 L 0 54.99261 L 31.75 0 z" stroke-linecap="round" />
</g>
<g transform="matrix(1 0 0 1 856.6 167)" id="XPXpOu2pTGPSagcjvydvy"  >
<path style="stroke: rgb(93,227,255); stroke-opacity: 0.38; stroke-width: 4; stroke-dasharray: none; stroke-linecap: butt; stroke-dashoffset: 0; stroke-linejoin: miter; stroke-miterlimit: 4; fill: none; fill-rule: nonzero; opacity: 1;" vector-effect="non-scaling-stroke"  transform=" translate(-63.5, -54.99)" d="M 95.25 0 L 127 54.99261 L 95.25 109.98522 L 31.75 109.98522 L 0 54.99261 L 31.75 0 z" stroke-linecap="round" />
</g>
<g transform="matrix(1 0 0 1 856.6 280.99)" id="7vZQszNdUxi9_V-tSjL0f"  >
<path style="stroke: rgb(93,227,255); stroke-opacity: 0.38; stroke-width: 4; stroke-dasharray: none; stroke-linecap: butt; stroke-dashoffset: 0; stroke-linejoin: miter; stroke-miterlimit: 4; fill: none; fill-rule: nonzero; opacity: 1;" vector-effect="non-scaling-stroke"  transform=" translate(-63.5, -54.99)" d="M 95.25 0 L 127 54.99261 L 95.25 109.98522 L 31.75 109.98522 L 0 54.99261 L 31.75 0 z" stroke-linecap="round" />
</g>
</svg>